{
  "accessors": [
    {
      "bufferView": 2,
      "componentType": 5126,
      "count": 546,
      "max": [
        2.2572119235992432,
        1.253491997718811,
        0.099358998239040375
      ],
      "min": [
        -0.89999997615814209,
        -1.3799999952316284,
        -1.5023380517959595
      ],
      "type": "VEC3"
    },
    {
      "bufferView": 2,
      "byteOffset": 6552,
      "componentType": 5126,
      "count": 546,
      "max": [
        1,
        1,
        1
      ],
      "min": [
        -1,
        -1,
        -1
      ],
      "type": "VEC3"
    },
    {
      "bufferView": 3,
      "componentType": 5126,
      "count": 546,
      "max": [
        1,
        1,
        1,
        1
      ],
      "min": [
        -1,
        -1,
        -1,
        1
      ],
      "type": "VEC4"
    },
    {
      "bufferView": 2,
      "byteOffset": 13104,
      "componentType": 5126,
      "count": 546,
      "max": [
        1,
        1,
        1
      ],
      "min": [
        0.0039215688593685627,
        0,
        0
      ],
      "type": "VEC3"
    },
    {
      "bufferView": 1,
      "componentType": 5126,
      "count": 546,
      "max": [
        0.89603197574615479,
        0.46163100004196167
      ],
      "min": [
        0.14070199429988861,
        0.00044199998956173658
      ],
      "type": "VEC2"
    },
    {
      "bufferView": 0,
      "componentType": 5125,
      "count": 1938,
      "max": [
        545
      ],
      "min": [
        0
      ],
      "type": "SCALAR"
    },
    {
      "bufferView": 2,
      "byteOffset": 19656,
      "componentType": 5126,
      "count": 873,
      "max": [
        2.4000000953674316,
        1.3999999761581421,
        1.0969619750976562
      ],
      "min": [
        -1.2100000381469727,
        -2.4000000953674316,
        -1.5
      ],
      "type": "VEC3"
    },
    {
      "bufferView": 2,
      "byteOffset": 30132,
      "componentType": 5126,
      "count": 873,
      "max": [
        1,
        1,
        1
      ],
      "min": [
        -1,
        -1,
        -1
      ],
      "type": "VEC3"
    },
    {
      "bufferView": 3,
      "byteOffset": 8736,
      "componentType": 5126,
      "count": 873,
      "max": [
        1,
        1,
        1,
        1
      ],
      "min": [
        -1,
        -1,
        -1,
        -1
      ],
      "type": "VEC4"
    },
    {
      "bufferView": 2,
      "byteOffset": 40608,
      "componentType": 5126,
      "count": 873,
      "max": [
        1,
        1,
        1
      ],
      "min": [
        0.0039215688593685627,
        0,
        0
      ],
      "type": "VEC3"
    },
    {
      "bufferView": 1,
      "byteOffset": 4368,
      "componentType": 5126,
      "count": 873,
      "max": [
        0.99955999851226807,
        0.98765301704406738
      ],
      "min": [
        0.00044100001105107367,
        0.0004400000034365803
      ],
      "type": "VEC2"
    },
    {
      "bufferView": 0,
      "byteOffset": 7752,
      "componentType": 5125,
      "count": 2148,
      "max": [
        872
      ],
      "min": [
        0
      ],
      "type": "SCALAR"
    }
  ],
  "asset": {
    "extras": {
      "author": "FimK models (https://sketchfab.com/SCDU)",
      "license": "CC-BY-4.0 (http://creativecommons.org/licenses/by/4.0/)",
      "source": "https://sketchfab.com/3d-models/dirty-computer-c505e6caf44345428fbbeffad3482a66",
      "title": "Dirty Computer."
    },
    "generator": "Sketchfab-8.45.0",
    "version": "2.0"
  },
  "bufferViews": [
    {
      "buffer": 0,
      "byteLength": 16344,
      "byteOffset": 0,
      "name": "floatBufferViews",
      "target": 34963
    },
    {
      "buffer": 0,
      "byteLength": 11352,
      "byteOffset": 16344,
      "byteStride": 8,
      "name": "floatBufferViews",
      "target": 34962
    },
    {
      "buffer": 0,
      "byteLength": 51084,
      "byteOffset": 27696,
      "byteStride": 12,
      "name": "floatBufferViews",
      "target": 34962
    },
    {
      "buffer": 0,
      "byteLength": 22704,
      "byteOffset": 78780,
      "byteStride": 16,
      "name": "floatBufferViews",
      "target": 34962
    }
  ],
  "buffers": [
    {
      "byteLength": 101484,
      "uri": "scene.bin"
    }
  ],
  "images": [
    {
      "uri": "textures/cube_ao_baseColor.webp"
    },
    {
      "uri": "textures/cube_ao_metallicRoughness.webp"
    },
    {
      "uri": "textures/cube_ao_emissive.webp"
    },
    {
      "uri": "textures/cube_ao_normal.webp"
    }
  ],
  "materials": [
    {
      "doubleSided": true,
      "emissiveFactor": [
        1,
        1,
        1
      ],
      "emissiveTexture": {
        "index": 2,
        "texCoord": 0
      },
      "name": "cube_ao",
      "normalTexture": {
        "index": 3,
        "scale": 1,
        "texCoord": 0
      },
      "occlusionTexture": {
        "index": 1,
        "strength": 1,
        "texCoord": 0
      },
      "pbrMetallicRoughness": {
        "baseColorFactor": [
          1,
          1,
          1,
          1
        ],
        "baseColorTexture": {
          "index": 0,
          "texCoord": 0
        },
        "metallicFactor": 1,
        "metallicRoughnessTexture": {
          "index": 1,
          "texCoord": 0
        },
        "roughnessFactor": 1
      }
    }
  ],
  "meshes": [
    {
      "name": "defaultMaterial",
      "primitives": [
        {
          "attributes": {
            "COLOR_0": 3,
            "NORMAL": 1,
            "POSITION": 0,
            "TANGENT": 2,
            "TEXCOORD_0": 4
          },
          "indices": 5,
          "material": 0,
          "mode": 4
        }
      ]
    },
    {
      "name": "defaultMaterial",
      "primitives": [
        {
          "attributes": {
            "COLOR_0": 9,
            "NORMAL": 7,
            "POSITION": 6,
            "TANGENT": 8,
            "TEXCOORD_0": 10
          },
          "indices": 11,
          "material": 0,
          "mode": 4
        }
      ]
    }
  ],
  "nodes": [
    {
      "children": [
        1
      ],
      "name": "RootNode (gltf orientation matrix)",
      "rotation": [
        -0.70710678118654746,
        -0,
        -0,
        0.70710678118654757
      ]
    },
    {
      "children": [
        2
      ],
      "name": "RootNode (model correction matrix)"
    },
    {
      "children": [
        3,
        5
      ],
      "matrix": [
        1,
        0,
        0,
        0,
        0,
        -4.3711390063094768e-08,
        0.999999999999999,
        0,
        0,
        -0.999999999999999,
        -4.3711390063094768e-08,
        0,
        0,
        0,
        0,
        1
      ],
      "name": "Collada visual scene group"
    },
    {
      "children": [
        4
      ],
      "matrix": [
        100,
        0,
        0,
        0,
        0,
        -1.5999999999999999e-05,
        -100,
        0,
        0,
        100,
        -1.5999999999999999e-05,
        0,
        0,
        150,
        0,
        1
      ],
      "name": "Cube.001"
    },
    {
      "mesh": 0,
      "name": "defaultMaterial"
    },
    {
      "children": [
        6
      ],
      "matrix": [
        100,
        0,
        0,
        0,
        0,
        -1.5999999999999999e-05,
        -100,
        0,
        0,
        100,
        -1.5999999999999999e-05,
        0,
        0,
        150,
        0,
        1
      ],
      "name": "Cube"
    },
    {
      "mesh": 1,
      "name": "defaultMaterial"
    }
  ],
  "samplers": [
    {
      "magFilter": 9729,
      "minFilter": 9987,
      "wrapS": 10497,
      "wrapT": 10497
    }
  ],
  "scene": 0,
  "scenes": [
    {
      "name": "OSG_Scene",
      "nodes": [
        0
      ]
    }
  ],
  "textures": [
    {
      "sampler": 0,
      "source": 0
    },
    {
      "sampler": 0,
      "source": 1
    },
    {
      "sampler": 0,
      "source": 2
    },
    {
      "sampler": 0,
      "source": 3
    }
  ]
}

